<svg xmlns="http://www.w3.org/2000/svg" viewBox="0 0 372 96" width="372" height="96" role="img" aria-label="WEBUNDO">
  <defs>
    <linearGradient id="wbBlue" x1="0" y1="0" x2="1" y2="1">
      <stop offset="0" stop-color="#4a90cc"/>
      <stop offset="1" stop-color="#1c5a9c"/>
    </linearGradient>
    <linearGradient id="wbGreen" x1="0" y1="1" x2="1" y2="0">
      <stop offset="0" stop-color="#3f8f2c"/>
      <stop offset="1" stop-color="#83c64b"/>
    </linearGradient>
  </defs>
  <g transform="rotate(-20 48 48)">
    <path fill="url(#wbGreen)" fill-rule="evenodd" d="M10,48a38,38 0 1,0 76,0a38,38 0 1,0 -76,0Z M12,28a34,34 0 1,0 68,0a34,34 0 1,0 -68,0Z"/>
    <path fill="url(#wbBlue)" fill-rule="evenodd" d="M10,48a38,38 0 1,0 76,0a38,38 0 1,0 -76,0Z M16,72a33,33 0 1,0 66,0a33,33 0 1,0 -66,0Z"/>
  </g>
  <text x="104" y="63" font-family="'Roboto','Inter',Arial,sans-serif" font-weight="800" font-size="37" letter-spacing="2" fill="#16324f">WEBUNDO</text>
</svg>
